PathFileType	4	(X/Y/Z)	T1_P2_Vision_NoMovement_0_0-733.trc
DataRate	CameraRate	NumFrames	NumMarkers	Units	OrigDataRate	OrigDataStartFrame	OrigNumFrames
60	60	4	27	m	60	549	733
Frame#	Time	RHip			RKnee			RAnkle			RBigToe			RSmallToe			RHeel			LHip			LKnee			LAnkle			LBigToe			LSmallToe			LHeel			Neck			Head			Nose			RShoulder			RElbow			RWrist			RThumb			RIndex			RPinky			LShoulder			LElbow			LWrist			LThumb			LIndex			LPinky		
		X1	Y1	Z1	X2	Y2	Z2	X3	Y3	Z3	X4	Y4	Z4	X5	Y5	Z5	X6	Y6	Z6	X7	Y7	Z7	X8	Y8	Z8	X9	Y9	Z9	X10	Y10	Z10	X11	Y11	Z11	X12	Y12	Z12	X13	Y13	Z13	X14	Y14	Z14	X15	Y15	Z15	X16	Y16	Z16	X17	Y17	Z17	X18	Y18	Z18	X19	Y19	Z19	X20	Y20	Z20	X21	Y21	Z21	X22	Y22	Z22	X23	Y23	Z23	X24	Y24	Z24	X25	Y25	Z25	X26	Y26	Z26	X27	Y27	Z27
550	9.166666666666666	443.6708735337618	3724.4795683219827	641.4542585378547	840.9729845428299	3777.214530130014	657.9872284180212	1207.3023525857088	3722.6953881115996	654.2351781577695	1293.0568257060868	3646.1735171913124	650.8343164593609	1295.4964431606554	3709.3686083228254	610.3847589757412	1278.1907651980018	3802.863342864027	732.8096244885089	446.8883952038189	3614.6628235568633	836.2036490206684	837.9094977084553	3642.6015607271	854.0932407748409	1228.1696762325723	3688.3126572120705	866.3064857184588	1303.1040369435382	3547.6265331184304	798.877181895804	1283.5592576958297	3537.9453961386985	844.6092921510979	1252.2720655030546	3702.8940996160923	856.3218851632319	-115.20236508316425	3620.6779884981406	753.9450327696414	-363.69359622765853	3512.0995528491676	750.6889420434414	-209.5848374035975	3469.928257070822	725.80944057363	-50.56541460981767	3710.1813492782494	618.483669869197	197.03089050355325	3697.5133418198657	532.7961407246759	360.78309769364324	3534.9230179217143	601.7143423143903	436.36397378691584	3497.7018111601315	678.2070078109207	462.96909188976474	3504.4080922177873	693.9115757414072	474.0470049482099	3452.1752793660153	616.5028812911409	-34.495474799393115	3538.4551952713227	884.2966200362089	211.00793323704167	3449.076190807563	851.6152107473921	350.34634634352005	3452.9114269617144	681.7931291109749	434.2415301223134	3515.769111903165	614.8213925636658	453.6683827435005	3507.1410873254204	607.1366268559769	456.4176300275708	3428.3070586174385	612.7398349117008
551	9.183333333333334	444.84205783712457	3723.501894705869	640.5164159967248	841.0274428113569	3782.585296615942	659.2254165566779	1207.9777206568492	3723.588238878076	653.2107111783164	1293.7894633138549	3648.464654627463	652.6885245051413	1295.0681758154828	3710.5448721515963	611.0255189794993	1281.151608181384	3806.5502071891965	733.6500898467409	447.70099637364785	3616.4963718618765	837.6261454947445	838.8240709218164	3641.457629718925	853.362605257699	1228.8307405112294	3688.620171473245	866.3746308615086	1303.1086238174591	3545.1745328707575	799.1746659993506	1283.5747366626908	3537.798772203913	845.2065238644203	1253.4254916428085	3703.5622188663924	856.5063981274402	-115.07404985427152	3620.454331624569	754.4685387668362	-362.9668041341004	3509.717970744593	753.0853621231272	-209.0780387457035	3470.3772378276067	726.0490427504706	-50.536175737432856	3709.565009262992	618.144781484272	196.43288100103567	3697.194566726357	532.6339783781085	361.7459228187023	3535.4073401866563	600.9708553382869	439.7492751409719	3506.741202680437	681.1506838402237	464.0908311184681	3511.1971217596442	694.7444543027956	475.3101927257113	3454.8372530204592	616.817418108979	-34.083476012453374	3540.1962612669454	885.9740528200892	212.34774639423716	3452.6350745006057	855.7642681930497	350.9888010139498	3456.7355529045817	684.7016443968349	434.6240828290353	3519.4899932362323	613.5512331603518	454.6754598639415	3510.785449331522	607.2214579623422	457.6004764605674	3428.871772796466	613.1485563583454
552	9.2	446.15567393702247	3721.152966247402	639.6130716158859	841.8354511915709	3789.4336317942816	660.9779867835126	1207.5644588000064	3723.303638499153	652.8698771232725	1294.429617868625	3651.189725043719	654.9721379163542	1294.6388993995324	3711.719094540801	611.7204758304842	1283.4480499100944	3808.7062657519464	735.8384687367554	449.0023505303838	3619.9209293288836	840.3412097908816	839.7623392139475	3640.213107811102	852.578607646262	1230.7342486923837	3689.8221407917054	866.7767041764578	1303.8528781720113	3542.183488017802	798.7813161132856	1283.6456613786454	3537.4062588922843	846.4618042479615	1255.635516938804	3704.895420001949	856.9055785760223	-114.48098569887438	3620.8539976734282	754.7140754993636	-362.56380963628095	3504.801089903987	752.9785055567625	-209.01333862886406	3470.3411208373723	726.0447957717995	-50.50265329089937	3709.1839169937093	617.9745020921351	195.09541901872618	3696.2149479470154	532.2774583462436	362.5490173257074	3535.7846240296512	600.169553774768	441.44970936472885	3516.500585522339	680.3228468762101	464.80830900242336	3517.418893297972	692.989171272962	477.2953581165926	3458.052283013097	619.2644279534043	-33.64962027955198	3542.780538896148	888.4274328361685	212.3751603504692	3456.7508007983843	860.5609891915976	351.9053149517692	3461.363611591706	689.6486820690824	433.45960482321135	3523.999006155528	613.3095235126912	455.9430742850292	3518.181160458626	610.025824750244	459.1837598201162	3429.5984189757937	613.7055094975937
553	9.216666666666669	447.69637786462795	3719.7620595075796	639.9145273492443	842.8685542891142	3793.0641449053937	662.4914609102699	1206.6008241398847	3722.1291743891625	653.6594989858194	1295.2588625086828	3654.079268519249	657.4251887286732	1294.2625928071316	3712.6867185462597	612.3250014053832	1283.1870602984657	3806.9460794710535	736.9305050662601	449.78432377840727	3622.8510166824144	842.8389430025926	840.1873507053531	3639.558502654934	852.1759729936703	1233.161254164291	3691.3994489061556	867.3268977270163	1305.0243503604397	3541.499272766199	797.9910797302862	1283.7054383480204	3536.994525746436	847.6236247451141	1256.9141291362962	3705.6098072352834	857.1263956679953	-113.16692386181035	3621.989139469228	755.137040464461	-362.0169639078514	3495.3004363187047	748.638319005928	-209.075381111722	3470.12992291201	725.9480604001627	-50.46258776068725	3709.025511098259	617.9564606748204	193.37505596404128	3694.8635748408797	531.8456929511916	362.7514888241634	3535.8252190917765	599.8197574839247	440.59117732967513	3523.593986411904	676.1876550018385	464.4512144174555	3520.5339231336743	689.2659741962085	478.79575285679357	3459.432215837535	622.009030215594	-33.970969771735476	3543.5867523902816	889.368410499838	211.90496279049037	3460.8711945367863	865.0758190490534	352.78851478106367	3464.6028195529198	694.5044622829718	431.0735884538689	3527.419231928554	614.5891413079513	456.58317237266004	3525.326727360434	613.9870636345731	460.73859075170776	3430.2837524065435	614.2650257170878
